<svg width="30" height="30" viewBox="0 0 30 30" fill="none" xmlns="http://www.w3.org/2000/svg">
<g clip-path="url(#clip0)">
<path d="M16.25 14.7263H25V16.5528H16.25V14.7263ZM16.25 11.682H25V13.5086H16.25V11.682ZM16.25 17.7705H25V19.5971H16.25V17.7705ZM26.25 4.98465H3.75C2.375 4.98465 1.25 6.08058 1.25 7.42005V23.2502C1.25 24.5897 2.375 25.6856 3.75 25.6856H26.25C27.625 25.6856 28.75 24.5897 28.75 23.2502V7.42005C28.75 6.08058 27.625 4.98465 26.25 4.98465ZM26.25 23.2502H15V7.42005H26.25V23.2502Z" fill="white"/>
</g>
<defs>
<clipPath id="clip0">
<rect width="30" height="29.2249" fill="white" transform="translate(0 0.113831)"/>
</clipPath>
</defs>
</svg>
