<svg width="30" height="30" viewBox="0 0 30 30" fill="none" xmlns="http://www.w3.org/2000/svg">
<path d="M25 16.032H5C4.3125 16.032 3.75 16.5799 3.75 17.2497V24.5559C3.75 25.2256 4.3125 25.7736 5 25.7736H25C25.6875 25.7736 26.25 25.2256 26.25 24.5559V17.2497C26.25 16.5799 25.6875 16.032 25 16.032ZM8.75 23.3382C7.375 23.3382 6.25 22.2423 6.25 20.9028C6.25 19.5633 7.375 18.4674 8.75 18.4674C10.125 18.4674 11.25 19.5633 11.25 20.9028C11.25 22.2423 10.125 23.3382 8.75 23.3382ZM25 3.85495H5C4.3125 3.85495 3.75 4.40292 3.75 5.07265V12.3789C3.75 13.0486 4.3125 13.5966 5 13.5966H25C25.6875 13.5966 26.25 13.0486 26.25 12.3789V5.07265C26.25 4.40292 25.6875 3.85495 25 3.85495ZM8.75 11.1612C7.375 11.1612 6.25 10.0652 6.25 8.72576C6.25 7.38629 7.375 6.29035 8.75 6.29035C10.125 6.29035 11.25 7.38629 11.25 8.72576C11.25 10.0652 10.125 11.1612 8.75 11.1612Z" fill="white"/>
</svg>
