<svg width="15" height="15" viewBox="0 0 15 15" fill="none" xmlns="http://www.w3.org/2000/svg">
<rect width="15" height="15" fill="white"/>
<path d="M11.6213 10.1282C11.4961 10.1282 11.3945 10.0266 11.3945 9.90139C11.3945 9.77617 11.4961 9.67454 11.6213 9.67454C13.2342 9.67454 14.5459 8.36246 14.5459 6.75004C14.5459 5.13807 13.2338 3.82689 11.6213 3.82689C11.4861 3.82689 11.3432 3.83869 11.1717 3.86455C11.0746 3.87952 10.9785 3.82871 10.9349 3.74069C10.2344 2.32018 8.81979 1.4382 7.24321 1.4382C5.34496 1.4382 3.70259 2.72623 3.2489 4.5705C3.22349 4.67394 3.12277 4.73972 3.02296 4.7429L2.96534 4.73972C2.96398 4.73972 2.96262 4.73972 2.96125 4.73972C1.55934 4.73972 0.453693 5.84628 0.453693 7.20645C0.453693 8.56753 1.56116 9.67454 2.92269 9.67454C3.04791 9.67454 3.14954 9.77617 3.14954 9.90139C3.14954 10.0266 3.04791 10.1282 2.92269 10.1282C1.31117 10.1282 0 8.81752 0 7.20645C0 5.61762 1.27488 4.32051 2.85554 4.28467C3.41858 2.33243 5.19705 0.984507 7.24276 0.984507C8.93866 0.984507 10.4658 1.90369 11.2666 3.39407C11.3936 3.38001 11.5088 3.3732 11.6209 3.3732C13.4838 3.3732 14.9991 4.88808 14.9991 6.75004C15 8.6129 13.4842 10.1282 11.6213 10.1282Z" fill="#555555"/>
<path d="M11.6213 10.1282C11.4961 10.1282 11.3945 10.0266 11.3945 9.9014C11.3945 9.77618 11.4961 9.67455 11.6213 9.67455C13.2342 9.67455 14.5458 8.36247 14.5458 6.75004C14.5458 5.13807 13.2337 3.8269 11.6213 3.8269C10.7765 3.8269 9.97306 4.19212 9.41728 4.82865C9.33516 4.92347 9.1918 4.933 9.09743 4.85043C9.00306 4.76831 8.99353 4.62494 9.07565 4.53058C9.71717 3.79514 10.645 3.37366 11.6213 3.37366C13.4842 3.37366 14.9995 4.88854 14.9995 6.7505C15 8.61291 13.4842 10.1282 11.6213 10.1282Z" fill="#555555"/>
<path d="M3.75429 14.0155C3.73115 14.0155 3.70801 14.0118 3.68487 14.0046C3.56555 13.9665 3.50022 13.8385 3.53833 13.7192L3.95482 12.4239C3.99338 12.3046 4.12178 12.2393 4.24019 12.2774C4.35951 12.3155 4.4253 12.4434 4.38673 12.5628L3.97024 13.8585C3.93939 13.9542 3.85001 14.0155 3.75429 14.0155ZM4.58772 11.424C4.56458 11.424 4.54144 11.4204 4.51831 11.4131C4.39898 11.375 4.3332 11.247 4.37176 11.1277L4.78825 9.83197C4.82682 9.71265 4.9543 9.64823 5.07363 9.68543C5.19295 9.72354 5.25828 9.85148 5.22017 9.9708L4.80368 11.2666C4.77283 11.3627 4.6839 11.424 4.58772 11.424Z" fill="#555555"/>
<path d="M8.29121 14.0155C8.26807 14.0155 8.24494 14.0118 8.2218 14.0046C8.10248 13.9665 8.03714 13.8385 8.07525 13.7192L8.49174 12.4239C8.53031 12.3046 8.6587 12.2393 8.77712 12.2774C8.89644 12.3155 8.96222 12.4434 8.92366 12.5628L8.50717 13.8585C8.47632 13.9542 8.38694 14.0155 8.29121 14.0155ZM9.12465 11.424C9.10151 11.424 9.07837 11.4204 9.05523 11.4131C8.93591 11.375 8.87012 11.247 8.90869 11.1277L9.32518 9.83197C9.36374 9.71265 9.49123 9.64823 9.61055 9.68543C9.72987 9.72354 9.79521 9.85148 9.7571 9.9708L9.3406 11.2666C9.30975 11.3627 9.22083 11.424 9.12465 11.424Z" fill="#555555"/>
<path d="M6.02278 14.0155C5.99964 14.0155 5.9765 14.0118 5.95336 14.0046C5.83404 13.9665 5.76871 13.8385 5.80682 13.7192L6.22331 12.4239C6.26188 12.3046 6.39027 12.2393 6.50868 12.2774C6.62801 12.3155 6.69379 12.4434 6.65523 12.5628L6.23874 13.8585C6.20789 13.9542 6.11851 14.0155 6.02278 14.0155ZM6.85621 11.424C6.83308 11.424 6.80994 11.4204 6.7868 11.4131C6.66748 11.375 6.60169 11.247 6.64026 11.1277L7.05675 9.83197C7.09531 9.71265 7.2228 9.64823 7.34212 9.68543C7.46144 9.72354 7.52677 9.85148 7.48866 9.9708L7.07217 11.2666C7.04132 11.3627 6.9524 11.424 6.85621 11.424Z" fill="#555555"/>
</svg>
