<svg width="15" height="15" viewBox="0 0 15 15" fill="none" xmlns="http://www.w3.org/2000/svg">
<rect width="15" height="15" fill="white"/>
<path d="M10.3,3.7c-0.7-1-1.5-2.1-2-3.2C8.1,0.2,7.8,0,7.4,0C7.1,0,6.8,0.2,6.6,0.5 C6.1,1.6,5.4,2.6,4.7,3.6c-1.4,2-2.6,3.8-2.6,5.9c0,3.2,2.2,5.5,5.4,5.5c3.1,0,5.5-2.4,5.5-5.5C12.9,7.4,11.6,5.6,10.3,3.7z M7.4,14.4c-2.8,0-4.7-2.1-4.7-4.9c0-1.9,1.2-3.7,2.5-5.5c0.7-1,1.4-2.1,2-3.2c0.1-0.2,0.2-0.2,0.3-0.2c0.1,0,0.2,0,0.3,0.2 C8.3,1.9,9,3,9.8,4c1.3,1.9,2.5,3.6,2.5,5.5C12.3,12.3,10.2,14.4,7.4,14.4z" fill="#555555"/>
<path d="M6,4.5C5.8,4.4,5.6,4.4,5.6,4.6C5,5.4,4.4,6.3,4,7.2C3.9,7.4,4,7.6,4.1,7.6c0,0,0.1,0,0.1,0 c0.1,0,0.2-0.1,0.3-0.2c0.4-0.9,1-1.8,1.5-2.6C6.2,4.8,6.1,4.6,6,4.5z" fill="#555555"/>
<path d="M4,8C3.8,7.9,3.7,8,3.6,8.1C3.5,8.3,3.5,8.5,3.4,8.7C3.4,8.8,3.5,9,3.7,9c0,0,0,0,0.1,0 C3.9,9,4,8.9,4.1,8.8c0-0.1,0.1-0.3,0.1-0.4C4.2,8.2,4.2,8.1,4,8z" fill="#555555"/>
</svg>
