<svg width="15" height="15" viewBox="0 0 15 15" fill="none" xmlns="http://www.w3.org/2000/svg">
<path d="M12.0652 1.95652C10.4468 1.95652 9.13043 3.27326 9.13043 4.8913C9.13043 5.0713 9.2762 5.21739 9.45652 5.21739C9.63685 5.21739 9.78261 5.0713 9.78261 4.8913C9.78261 3.63261 10.8068 2.60869 12.0652 2.60869C13.3236 2.60869 14.3478 3.63261 14.3478 4.8913C14.3478 6.15 13.3236 7.17391 12.0652 7.17391H0.326087C0.146087 7.17391 0 7.32 0 7.5C0 7.68 0.146087 7.82608 0.326087 7.82608H12.0652C13.6836 7.82608 15 6.50935 15 4.8913C15 3.27326 13.6836 1.95652 12.0652 1.95652Z" fill="#555555"/>
<path d="M5.86957 1.30435C4.61087 1.30435 3.58696 2.32826 3.58696 3.58696C3.58696 3.76696 3.73304 3.91304 3.91304 3.91304C4.09304 3.91304 4.23913 3.76696 4.23913 3.58696C4.23913 2.68793 4.97054 1.95652 5.86957 1.95652C6.76859 1.95652 7.5 2.68793 7.5 3.58696C7.5 4.48598 6.76859 5.21739 5.86957 5.21739H0.326087C0.146087 5.21739 0 5.36348 0 5.54348C0 5.72348 0.146087 5.86957 0.326087 5.86957H5.86957C7.12826 5.86957 8.15217 4.84565 8.15217 3.58696C8.15217 2.32826 7.12826 1.30435 5.86957 1.30435Z" fill="#555555"/>
<path d="M11.413 9.13045H0.326087C0.146087 9.13045 0 9.27653 0 9.45653C0 9.63653 0.146087 9.78262 0.326087 9.78262H11.413C12.3121 9.78262 13.0435 10.514 13.0435 11.413C13.0435 12.3121 12.3121 13.0435 11.413 13.0435C10.514 13.0435 9.78261 12.3121 9.78261 11.413C9.78261 11.233 9.63685 11.087 9.45652 11.087C9.2762 11.087 9.13043 11.233 9.13043 11.413C9.13043 12.6717 10.1547 13.6957 11.413 13.6957C12.6714 13.6957 13.6957 12.6717 13.6957 11.413C13.6957 10.1544 12.6714 9.13045 11.413 9.13045Z" fill="#555555"/>
</svg>
